<?xml version="1.0" standalone="no"?>
<!DOCTYPE svg PUBLIC "-//W3C//DTD SVG 1.1//EN" "http://www.w3.org/Graphics/SVG/1.1/DTD/svg11.dtd" >
<svg xmlns="http://www.w3.org/2000/svg">
<metadata></metadata>
<defs>
<font id="highway_gothicregular" horiz-adv-x="972" >
<font-face units-per-em="2048" ascent="1638" descent="-410" />
<missing-glyph horiz-adv-x="522" />
<glyph horiz-adv-x="2048" />
<glyph horiz-adv-x="2048" />
<glyph unicode="&#xd;" horiz-adv-x="2048" />
<glyph unicode=" "  horiz-adv-x="522" />
<glyph unicode="&#x09;" horiz-adv-x="522" />
<glyph unicode="&#xa0;" horiz-adv-x="522" />
<glyph unicode="!" horiz-adv-x="419" d="M98 98q0 43 34 77t77 34t76.5 -34t33.5 -77t-33.5 -76.5t-76.5 -33.5t-77 33.5t-34 76.5zM98 893v479h221v-479l-40 -539h-142z" />
<glyph unicode="&#x22;" horiz-adv-x="890" d="M150 1372h210l-32 -555h-146zM528 1372h213l-34 -555h-144z" />
<glyph unicode="#" horiz-adv-x="1323" d="M82 410l24 172h222l39 235h-224l25 174h221l64 381h192l-63 -381h245l58 381h198l-57 -381h215l-22 -174h-224l-32 -235h217l-25 -172h-217l-68 -410h-200l67 410h-241l-64 -410h-192l63 410h-221zM524 582h242l33 235h-240z" />
<glyph unicode="$" horiz-adv-x="1075" d="M70 295l206 104q96 -199 267 -198q98 -2 169.5 68.5t71.5 164.5q2 63 -55 126t-203 89q-197 29 -301 120t-104 218q-4 152 106.5 280t292.5 128q256 -6 381 -242l-182 -92q-66 121 -203 123q-80 0 -133 -49.5t-51 -116.5q0 -49 48 -88t152 -56q248 -43 360 -166.5 t112 -283.5q0 -176 -133.5 -312.5t-331.5 -136.5q-315 4 -469 320zM444 -2h187v-234h-187v234zM444 1307v233h187v-233h-187z" />
<glyph unicode="%" d="M49 0l787 1372h88l-785 -1372h-90zM78 1174q0 84 57.5 141t140.5 57q80 0 140.5 -58t60.5 -140h-74q2 51 -35.5 87.5t-91.5 36.5q-53 0 -91 -35.5t-38 -88.5q0 -51 38 -89t91 -38t91.5 37.5t35.5 89.5h74q0 -82 -59.5 -141.5t-141.5 -59.5t-140 59.5t-58 141.5zM489 201 q0 84 57.5 141t141.5 57q80 0 140.5 -58t60.5 -140h-74q2 51 -36 88t-91 37t-91 -36t-38 -89q0 -51 38 -89t91 -38t91 38t36 89h74q0 -82 -59.5 -141.5t-141.5 -59.5t-140.5 59.5t-58.5 141.5z" />
<glyph unicode="&#x26;" horiz-adv-x="1239" d="M100 371q6 289 226 452q-88 131 -88 260q0 133 81.5 220.5t212.5 87.5q199 -4 302 -211l-166 -84q-47 109 -140 112q-47 -2 -78.5 -35.5t-31.5 -85.5q0 -82 78 -188l290 -414q27 98 31 179h176q-16 -207 -88 -342l234 -322h-252l-96 143q-141 -172 -324 -172 q-162 0 -264.5 112t-102.5 288zM295 375q0 -82 53 -141.5t127 -59.5q111 0 203 133l-242 340q-141 -135 -141 -272z" />
<glyph unicode="'" horiz-adv-x="522" d="M156 1372h211l-33 -555h-146z" />
<glyph unicode="(" horiz-adv-x="583" d="M86 631q0 446 236 778h178q-78 -125 -125 -217q-111 -236 -111 -567q0 -295 121 -572q33 -74 115 -211h-178q-236 332 -236 789z" />
<glyph unicode=")" horiz-adv-x="583" d="M86 -158q82 137 115 211q121 276 121 572q0 332 -111 567q-47 92 -125 217h178q236 -332 236 -778q0 -457 -236 -789h-178z" />
<glyph unicode="*" horiz-adv-x="931" d="M106 1034l54 174l225 -78l-8 242h178l-10 -242l225 72l53 -168l-229 -57l154 -182l-140 -107l-141 193l-139 -193l-140 111l150 182z" />
<glyph unicode="+" horiz-adv-x="1034" d="M63 563v221h345v342h215v-342h346v-221h-346v-342h-215v342h-345z" />
<glyph unicode="," horiz-adv-x="419" d="M98 96q0 43 34 77t77 34t76.5 -34t33.5 -77q0 -113 -53 -184.5t-157 -97.5v32q98 57 112 140h-12q-43 0 -77 33.5t-34 76.5z" />
<glyph unicode="-" horiz-adv-x="604" d="M74 563v221h456v-221h-456z" />
<glyph unicode="." horiz-adv-x="419" d="M98 96q0 43 34 77t77 34t76.5 -34t33.5 -77q0 -47 -32.5 -78.5t-77.5 -31.5q-43 0 -77 33.5t-34 76.5z" />
<glyph unicode="/" horiz-adv-x="991" d="M0 0l793 1372h198l-798 -1372h-193z" />
<glyph unicode="0" horiz-adv-x="1157" d="M76 686q0 336 130 522.5t372 186.5q246 0 373.5 -186.5t127.5 -522.5q0 -344 -127.5 -527.5t-373.5 -183.5q-242 0 -372 183.5t-130 527.5zM301 690q0 -242 64.5 -366.5t212.5 -122.5q156 4 215 129t63 360q-4 229 -68.5 354.5t-209.5 133.5q-143 0 -209 -136.5 t-68 -351.5z" />
<glyph unicode="1" horiz-adv-x="645" d="M150 1102v176q121 6 176 94h170v-1372h-220v1102h-126z" />
<glyph unicode="2" horiz-adv-x="1202" d="M135 0q14 489 492 760q233 123 225 231q0 78 -66.5 129t-173.5 56q-193 -14 -260 -195l-217 63q53 147 177 249t290 102q195 0 331 -119t136 -277q-6 -260 -315 -419q-293 -170 -351 -359h666v-221h-934z" />
<glyph unicode="3" horiz-adv-x="1136" d="M88 311l223 72q88 -188 262 -186q109 0 177.5 68.5t68.5 172.5q-2 180 -186 203h-64v215h64q133 0 133 135q0 80 -57.5 131.5t-139.5 51.5q-137 0 -217 -144l-205 64q37 119 153 209t263 92q174 0 297 -122t123 -296q2 -145 -94 -223q143 -100 147 -301 q0 -211 -132 -344.5t-326 -135.5q-178 2 -301 86t-189 252z" />
<glyph unicode="4" horiz-adv-x="1157" d="M80 342v199l649 831h217v-833h131v-197h-131v-342h-217v342h-649zM340 539h389v491z" />
<glyph unicode="5" horiz-adv-x="1136" d="M102 53l125 197q96 -49 213 -49q152 -4 265.5 98t113.5 217q2 98 -66.5 166t-172.5 68q-133 2 -238 -121l-195 73l23 670h788v-217h-577l-8 -235q100 53 205 53q195 -4 324.5 -133t129.5 -328q0 -205 -167 -371t-427 -166q-182 0 -336 78z" />
<glyph unicode="6" horiz-adv-x="1136" d="M102 414q0 285 145.5 554t383.5 427l110 -183q-242 -186 -335 -421q76 23 163 22q190 0 328.5 -123t138.5 -295q0 -178 -134 -299t-333 -121t-333 127t-134 312zM324 399q0 -84 71.5 -143t173.5 -59q100 0 175 60t75 142q0 80 -73.5 138.5t-176.5 58.5q-117 2 -180 -51 t-65 -146z" />
<glyph unicode="7" horiz-adv-x="1136" d="M102 1155v217h930v-217q-362 -545 -405 -1155h-221q47 618 352 1155h-656z" />
<glyph unicode="8" horiz-adv-x="1136" d="M102 438q4 207 160 316q-100 98 -102 252q0 160 121.5 274.5t287.5 114.5t290 -116t124 -273q-8 -154 -119 -250q166 -103 172 -318q0 -188 -139 -325.5t-328 -137.5q-188 0 -327.5 137.5t-139.5 325.5zM324 432q0 -96 71.5 -165.5t173.5 -69.5q104 0 177 69.5t73 165.5 q0 86 -73.5 147.5t-176.5 61.5q-102 0 -173.5 -60.5t-71.5 -148.5zM377 1010q0 -59 56 -103.5t136 -44.5q78 0 135.5 44.5t57.5 103.5q0 70 -56.5 117t-136.5 47t-136 -47.5t-56 -116.5z" />
<glyph unicode="9" horiz-adv-x="1136" d="M102 975q0 178 134.5 299t332.5 121q199 0 333 -127t134 -312q0 -285 -145.5 -554t-382.5 -427l-111 183q242 186 336 422q-76 -23 -164 -23q-190 0 -328.5 123t-138.5 295zM319 971q0 -80 74 -138.5t176 -58.5q117 -2 180.5 51.5t65.5 145.5q0 84 -71.5 143.5 t-174.5 59.5q-100 0 -175 -60.5t-75 -142.5z" />
<glyph unicode=":" horiz-adv-x="419" d="M98 96q0 43 34 77t77 34t76.5 -34t33.5 -77q0 -47 -32.5 -78.5t-77.5 -31.5q-43 0 -77 33.5t-34 76.5zM98 915q0 43 34 77t77 34t76.5 -34t33.5 -77q0 -47 -32.5 -78.5t-77.5 -31.5q-43 0 -77 33.5t-34 76.5z" />
<glyph unicode=";" horiz-adv-x="419" d="M98 96q0 43 34 77t77 34t76.5 -34t33.5 -77q0 -113 -53 -184.5t-157 -97.5v32q98 57 112 140h-12q-43 0 -77 33.5t-34 76.5zM98 915q0 43 34 77t77 34t76.5 -34t33.5 -77q0 -47 -32.5 -78.5t-77.5 -31.5q-43 0 -77 33.5t-34 76.5z" />
<glyph unicode="&#x3c;" horiz-adv-x="1196" d="M113 641v168l970 410v-179l-770 -315l770 -319v-181z" />
<glyph unicode="=" horiz-adv-x="1013" d="M47 375v221h920v-221h-920zM47 752v215h920v-215h-920z" />
<glyph unicode="&#x3e;" horiz-adv-x="1196" d="M113 225v181l770 319l-770 315v179l970 -410v-168z" />
<glyph unicode="?" horiz-adv-x="1054" d="M94 1094q139 291 447 299q182 -4 301 -104.5t119 -268.5q-12 -129 -121 -254q-186 -223 -222 -395h-202q45 268 241 477q82 82 86 162q0 82 -60 134t-140 50q-178 -8 -260 -180zM410 96q0 43 33.5 77t76.5 34t77 -34t34 -77q0 -47 -33 -78.5t-78 -31.5q-43 0 -76.5 33.5 t-33.5 76.5z" />
<glyph unicode="@" horiz-adv-x="1443" d="M43 674q0 303 205 512t500 209q287 0 469 -172t182 -439q0 -188 -99.5 -332.5t-232.5 -144.5q-119 -2 -174 92q-86 -51 -201 -51q-135 0 -205.5 65.5t-70.5 168.5q0 106 77.5 177.5t198.5 71.5q82 0 156 -22q4 90 -121 90q-96 0 -186 -47l-72 143q137 72 258 72 q297 0 297 -287v-278q-4 -61 51 -62q66 0 127.5 107.5t61.5 228.5q0 211 -139.5 342t-362.5 131q-240 0 -402.5 -167t-162.5 -410q0 -242 152.5 -399.5t412.5 -157.5q219 0 391 73l39 -145q-178 -72 -424 -72q-322 0 -523.5 186.5t-201.5 516.5zM588 592q0 -33 35.5 -56.5 t85.5 -23.5q73 0 139 37v98q-84 23 -156 23q-43 0 -73.5 -22.5t-30.5 -55.5z" />
<glyph unicode="A" horiz-adv-x="1239" d="M41 0l471 1372h217l471 -1372h-229l-135 385h-428l-136 -385h-231zM483 606h275l-135 385z" />
<glyph unicode="B" horiz-adv-x="1136" d="M104 0v1372h521q162 0 270.5 -99t108.5 -278q-2 -207 -134 -286q164 -92 164 -299q0 -166 -99 -288t-290 -122h-541zM319 217h326q76 0 121 57t45 129q-2 76 -45 128.5t-113 54.5h-334v-369zM322 815h315q70 0 113 52.5t45 111.5q0 76 -40 123t-116 47h-317v-334z" />
<glyph unicode="C" horiz-adv-x="1136" d="M106 686q0 336 130.5 522.5t371.5 186.5q297 -6 422 -260l-203 -101q-68 141 -219 144q-143 0 -208.5 -136.5t-65.5 -355.5t65.5 -355t208.5 -136q152 2 219 143l203 -100q-125 -254 -422 -261q-242 0 -372 186.5t-130 522.5z" />
<glyph unicode="D" horiz-adv-x="1136" d="M100 0v1372h428q213 0 359.5 -164t148.5 -522q-2 -358 -148.5 -522t-359.5 -164h-428zM317 217h211q137 4 214 131t79 338q0 225 -77.5 345t-215.5 124h-211v-469v-469z" />
<glyph unicode="E" horiz-adv-x="1054" d="M102 0v1372h809v-217h-592v-338h400v-221h-400v-375h635v-221h-852z" />
<glyph unicode="F" horiz-adv-x="1054" d="M102 0v1372h852v-217h-635v-338h400v-221h-400v-596h-217z" />
<glyph unicode="G" horiz-adv-x="1157" d="M94 686q0 336 130 522.5t372 186.5q297 -6 422 -260l-203 -101q-68 141 -219 144q-143 0 -208.5 -136.5t-65.5 -355.5t65.5 -355t208.5 -136q184 4 219 254h-211v229h459v-60q-2 -317 -126 -480t-335 -163q-248 2 -378 188.5t-130 522.5z" />
<glyph unicode="H" horiz-adv-x="1136" d="M102 0v1372h217v-555h500v555h217v-1372h-217v596h-500v-596h-217z" />
<glyph unicode="I" horiz-adv-x="563" d="M170 0v1372h221v-1372h-221z" />
<glyph unicode="J" horiz-adv-x="1075" d="M78 317l215 89q88 -203 260 -209q102 0 161 71q58 68 58 176v7v921h221v-919q-2 -217 -122.5 -347.5t-315.5 -130.5q-334 8 -477 342z" />
<glyph unicode="K" horiz-adv-x="1136" d="M90 0v1372h217v-545l432 545h279l-422 -534l453 -838h-252l-346 649l-144 -178v-471h-217z" />
<glyph unicode="L" horiz-adv-x="1054" d="M102 0v1372h217v-1151h635v-221h-852z" />
<glyph unicode="M" horiz-adv-x="1259" d="M96 0v1372h217l318 -770l317 770h217v-1372h-217v795l-317 -795l-318 795v-795h-217z" />
<glyph unicode="N" horiz-adv-x="1136" d="M102 0v1372h217l500 -876v876h217v-1372h-192l-525 930v-930h-217z" />
<glyph unicode="O" horiz-adv-x="1157" d="M76 686q0 336 130 522.5t372 186.5q246 0 373.5 -186.5t127.5 -522.5q0 -344 -127.5 -527.5t-373.5 -183.5q-242 0 -372 183.5t-130 527.5zM301 690q1 -242 65 -366q63 -123 207 -123h5q156 4 215 129t63 360q-4 229 -68.5 354.5t-209.5 133.5q-143 0 -209 -136.5 t-68 -351.5z" />
<glyph unicode="P" horiz-adv-x="1136" d="M117 0v1372h452q152 0 244 -44t150.5 -140t58.5 -201q0 -109 -47 -197t-143 -142q-92 -52 -228 -52h-10h-260v-596h-217zM330 813h325q61 0 104.5 45t43.5 125t-48 123t-108 45h-317v-338z" />
<glyph unicode="Q" horiz-adv-x="1157" d="M76 686q0 336 130 522.5t372 186.5q246 0 373.5 -186.5t127.5 -522.5q-6 -397 -131 -559l105 -168l-183 -119l-102 164q-100 -29 -190 -29q-242 0 -372 183.5t-130 527.5zM301 690q0 -242 65 -366q63 -123 207 -123h5q45 0 75 14l-123 203l185 123l102 -162 q39 111 39 311q-4 229 -68.5 354.5t-209.5 133.5q-143 0 -209 -136.5t-68 -351.5z" />
<glyph unicode="R" horiz-adv-x="1136" d="M102 0v1372h543q168 -2 265.5 -122t97.5 -263q0 -109 -59.5 -206t-153.5 -140l241 -641h-235l-221 596h-261v-596h-217zM319 811h326q61 0 104.5 45t43.5 125t-48.5 123t-107.5 45h-318v-338z" />
<glyph unicode="S" horiz-adv-x="1075" d="M70 295l206 104q96 -198 265 -198h2h5q94 1 164 69q72 70 72 164q2 63 -55 126t-203 89q-197 29 -301 120t-104 218v11q1 146 107 269q110 128 292 128q256 -6 381 -242l-182 -92q-66 121 -203 123q-80 0 -133 -49.5t-51 -116.5q0 -49 48 -88t152 -56q248 -43 360 -166.5 t112 -283.5q0 -176 -133.5 -312.5t-331.5 -136.5q-315 4 -469 320z" />
<glyph unicode="T" horiz-adv-x="1054" d="M102 1180v192h848v-192h-317v-1180h-217v1180h-314z" />
<glyph unicode="U" horiz-adv-x="1136" d="M102 492v880h217v-880q0 -133 69 -214t181 -81q113 0 181.5 80.5t68.5 214.5v880h217v-880q0 -162 -63 -285q-51 -102 -164 -167t-240 -65t-239.5 64.5t-165.5 167.5q-61 123 -62 285z" />
<glyph unicode="V" horiz-adv-x="1136" d="M47 1372h227l293 -915l289 915h231l-423 -1372h-199z" />
<glyph unicode="W" horiz-adv-x="1300" d="M41 1372h221l107 -723l174 723h211l178 -723l106 723h222l-203 -1372h-193l-217 881l-211 -881h-192z" />
<glyph unicode="X" horiz-adv-x="1054" d="M61 0l342 707l-317 665h244l198 -409l197 409h246l-322 -665l346 -707h-245l-222 457l-221 -457h-246z" />
<glyph unicode="Y" horiz-adv-x="1280" d="M53 1372h260l328 -530l332 530h254l-475 -776v-596h-217v596z" />
<glyph unicode="Z" horiz-adv-x="1075" d="M70 0v197l637 958h-584v217h881v-198l-648 -953h648v-221h-934z" />
<glyph unicode="[" horiz-adv-x="563" d="M78 -334v1751h405v-149h-262v-1452h262v-150h-405z" />
<glyph unicode="\" horiz-adv-x="991" d="M0 1372h199l792 -1372h-192z" />
<glyph unicode="]" horiz-adv-x="563" d="M78 -184h262v1452h-262v149h405v-1751h-405v150z" />
<glyph unicode="^" d="M59 690l355 801h145l354 -801h-182l-246 596l-239 -596h-187z" />
<glyph unicode="_" horiz-adv-x="1138" d="M-31 -276h1192v-132h-1192v132z" />
<glyph unicode="`" horiz-adv-x="481" d="M55 1372h238l133 -280h-150z" />
<glyph unicode="a" d="M102 332q0 150 100 251q98 99 262 99h7q94 0 176 -23v7q0 143 -151 157h-13q-125 0 -227 -73l-109 165q147 104 342 111q160 0 269.5 -91t111.5 -265v-670h-211v33q-80 -57 -178 -60q-164 2 -271.5 93.5t-107.5 265.5zM297 328q0 -61 48 -116.5t130 -55.5h2q87 0 164 75 v226q-87 24 -173 24h-7q-72 0 -119 -47t-45 -106z" />
<glyph unicode="b" horiz-adv-x="1034" d="M106 0v1286l218 109v-441q66 70 188 72q414 -8 414 -541q0 -510 -410 -510q-106 0 -192 60v-35h-218zM328 264q74 -96 185 -96h5q193 2 195 319q0 315 -201 328q-125 0 -184 -100v-451z" />
<glyph unicode="c" horiz-adv-x="952" d="M76 506q0 211 80 342q106 178 338 178q297 0 380 -252l-202 -82q-44 129 -176 129h-4q-111 0 -160 -119q-35 -84 -35 -196q0 -113 35 -197q49 -119 160 -119h4q132 0 176 129l202 -81q-84 -252 -380 -252q-231 0 -338 178q-80 131 -80 342z" />
<glyph unicode="d" horiz-adv-x="1034" d="M106 485q0 532 414 541q123 -2 189 -72v332l217 109v-1395h-217v35q-87 -60 -193 -60q-410 0 -410 510zM319 487q2 -317 195 -319h5q112 0 186 96v451q-59 100 -185 100q-201 -13 -201 -328z" />
<glyph unicode="e" d="M80 506q0 211 109.5 365.5t304.5 154.5q182 0 291.5 -143t109.5 -473h-590q-1 -96 51 -159q50 -61 128 -61h5h8q109 0 169 101l194 -80q-102 -229 -366 -236q-186 0 -300 137.5t-114 393.5zM301 610h375v7q0 83 -48 143q-50 64 -134 63h-5q-87 -1 -139 -67 q-50 -64 -49 -135v-11z" />
<glyph unicode="f" horiz-adv-x="583" d="M43 803v198h129v154q0 90 52 163t147 77q94 0 168 -37v-178q-45 18 -86 20q-57 -2 -60 -70v-129h146v-198h-146v-803h-221v803h-129z" />
<glyph unicode="g" horiz-adv-x="1034" d="M106 485q0 532 414 541q123 -2 189 -72v64h217v-983q-14 -401 -367 -531l-90 181q240 96 240 338v12q-87 -60 -193 -60q-410 0 -410 510zM319 487q2 -317 195 -319h5q112 0 186 96v451q-59 100 -185 100q-201 -13 -201 -328z" />
<glyph unicode="h" d="M86 0v1288l213 107v-445q90 76 240 76q174 0 260 -119t86 -276v-631h-211v627v10q0 72 -52 130t-129 58h-10q-88 0 -134 -51t-46 -147v-627h-217z" />
<glyph unicode="i" horiz-adv-x="501" d="M139 0v1001h223v-1001h-223zM139 1284q0 43 34 77t77 34t76.5 -34t33.5 -77q0 -47 -32.5 -78.5t-77.5 -31.5q-43 0 -77 33.5t-34 76.5z" />
<glyph unicode="j" horiz-adv-x="501" d="M0 -297q125 104 139 297v1001h223v-1001q-27 -352 -274 -496zM139 1284q0 43 34 77t77 34t76.5 -34t33.5 -77q0 -47 -32.5 -78.5t-77.5 -31.5q-43 0 -77 33.5t-34 76.5z" />
<glyph unicode="k" horiz-adv-x="1052" d="M84 0v1284l221 111v-682l275 288h278l-264 -274l375 -727h-250l-289 563l-125 -131v-432h-221z" />
<glyph unicode="l" horiz-adv-x="501" d="M139 0v1284l221 111v-1395h-221z" />
<glyph unicode="m" horiz-adv-x="1587" d="M117 0v1018h221v-62q92 74 217 74q170 0 266 -141q98 139 273 139q150 0 263 -114.5t116 -268.5v-645h-216v649q2 59 -50 117q-50 57 -123 57h-5q-74 0 -120 -53q-44 -51 -44 -115v-6v-649h-231v649q2 63 -49 119q-49 55 -122 55h-5q-68 -2 -116 -54t-50 -120v-649h-225z " />
<glyph unicode="n" d="M86 0v1014h213v-64q90 76 240 76q174 0 260 -119t86 -276v-631h-211v627v10q0 72 -52 130t-129 58h-10q-88 0 -134 -51t-46 -147v-627h-217z" />
<glyph unicode="o" d="M70 502q2 215 82 346q109 172 335 178q227 -6 336 -178q80 -131 82 -346q-2 -207 -82 -338q-106 -178 -336 -189q-229 10 -335 189q-80 131 -82 338zM279 500q0 -109 36 -191q61 -116 170 -116q119 0 174 116q37 82 37 191q0 115 -37 196q-53 117 -174 117 q-117 0 -170 -117q-36 -80 -36 -190v-6z" />
<glyph unicode="p" horiz-adv-x="1034" d="M106 -496v1514h218v-64q66 70 188 72q414 -8 414 -541q0 -510 -410 -510q-106 0 -192 60v-422zM328 264q74 -96 185 -96h5q193 2 195 319q0 315 -201 328q-125 0 -184 -100v-451z" />
<glyph unicode="q" horiz-adv-x="1034" d="M106 485q0 532 414 541q123 -2 189 -72v64h217v-1405l-217 -109v531q-87 -60 -193 -60q-410 0 -410 510zM319 487q2 -317 195 -319h5q112 0 186 96v451q-59 100 -185 100q-201 -13 -201 -328z" />
<glyph unicode="r" horiz-adv-x="718" d="M115 0v1018h219v-74q55 82 160 82q104 -2 184 -70l-72 -198q-59 59 -121 59h-4q-137 -4 -145 -192v-625h-221z" />
<glyph unicode="s" horiz-adv-x="870" d="M61 129l144 143q125 -98 225 -100h9q66 0 113 30q50 32 48 79q2 47 -45 88t-152 82q-152 51 -221 126.5t-69 176.5v13q0 93 83 174q89 87 234 87q221 -4 367 -158l-138 -137q-100 92 -225 96q-51 0 -80.5 -21.5t-31.5 -57.5q-2 -33 23.5 -53.5t127.5 -59.5 q145 -45 240.5 -131t95.5 -236q-2 -131 -102.5 -212t-276.5 -83q-201 2 -369 154z" />
<glyph unicode="t" horiz-adv-x="624" d="M47 799v202h146v289l210 105v-394h175v-198h-175v-539q0 -82 62 -86h5q49 0 105 41l-59 -217q-51 -27 -119 -27q-78 0 -141 72t-63 193v559h-146z" />
<glyph unicode="u" d="M86 371v630h211v-626v-11q0 -72 51 -130q52 -59 129 -58h10q88 0 134.5 51.5t46.5 147.5v626h217v-1001h-213v51q-90 -76 -240 -76q-174 0 -260 119t-86 277z" />
<glyph unicode="v" horiz-adv-x="1034" d="M33 1001h231l250 -673l242 673h243l-389 -1001h-192z" />
<glyph unicode="w" horiz-adv-x="1325" d="M31 1001h211l127 -538l176 538h229l172 -538l133 538h213l-229 -1001h-201l-209 688l-200 -688h-199z" />
<glyph unicode="x" horiz-adv-x="1075" d="M29 0l374 553l-305 448h260l179 -260l170 260h256l-295 -446l379 -555h-261l-249 371l-258 -371h-250z" />
<glyph unicode="y" horiz-adv-x="1075" d="M29 1001h235l275 -702l264 702h246l-594 -1495h-242l201 494z" />
<glyph unicode="z" horiz-adv-x="870" d="M59 0v174l496 629h-451v198h705v-198l-477 -606h477v-197h-750z" />
<glyph unicode="{" horiz-adv-x="686" d="M53 449v163q156 4 191 150q14 70 16 235q0 76 6 222q23 217 187 262q35 10 122 10h58v-158h-33q-111 0 -143 -47q-29 -39 -29 -158q0 -264 -10 -329q-16 -104 -60.5 -164t-138.5 -105q133 -55 178 -184q31 -90 31 -266q0 -197 4 -232q10 -76 51 -102q35 -20 117 -20h33 v-156h-58q-96 0 -141 14q-135 49 -162 205q-6 49 -6 209t-12 238q-18 125 -76 172q-49 39 -125 41z" />
<glyph unicode="|" horiz-adv-x="419" d="M158 -430v1921h102v-1921h-102z" />
<glyph unicode="}" horiz-adv-x="686" d="M53 -274h33q82 0 117 20q41 27 51 102q4 35 4 232q0 176 31 266q45 129 178 184q-94 45 -138 104.5t-61 164.5q-10 66 -10 329q0 119 -29 158q-33 47 -143 47h-33v158h58q88 0 122 -10q164 -45 187 -262q6 -145 6 -222q2 -166 16 -235q35 -145 191 -150v-163 q-76 -2 -125 -41q-57 -47 -76 -172q-12 -78 -12 -238t-6 -209q-27 -156 -162 -205q-45 -14 -141 -14h-58v156z" />
<glyph unicode="~" horiz-adv-x="1196" d="M86 557v205q106 121 279 121q109 0 315 -88q111 -47 172 -47q133 0 258 137v-211q-121 -115 -276 -115q-106 0 -289 82q-119 51 -197 51q-121 0 -262 -135z" />
<glyph unicode="&#xa1;" horiz-adv-x="419" d="M98 -12v479l41 539h142l38 -539v-479h-221zM98 1262q0 43 34 76.5t77 33.5t76.5 -33.5t33.5 -76.5t-33.5 -77t-76.5 -34t-77 34t-34 77z" />
<glyph unicode="&#xa2;" horiz-adv-x="952" d="M76 684q0 211 80 342q106 178 338 178q297 0 380 -252l-202 -82q-45 131 -180 129q-111 0 -160 -118q-35 -84 -35 -197t35 -197q49 -119 160 -118q135 -2 180 129l202 -82q-84 -252 -380 -252q-231 0 -338 178q-80 131 -80 342zM446 0v1372h113v-1372h-113z" />
<glyph unicode="&#xa3;" d="M57 0v201h23q139 133 147 319v111h-86v203h86v135q2 168 94.5 284.5t264.5 118.5q238 -6 329 -201l-178 -90q-33 94 -149 99q-76 -2 -114 -55.5t-36 -123.5v-167h240v-203h-229v-158q-8 -176 -99 -272h568v-201h-861z" />
<glyph unicode="&#xa4;" horiz-adv-x="1136" d="M76 354l139 135q-72 111 -72 236q0 127 72 236l-139 137l114 119l140 -140q106 72 237 72t238 -72l137 140l117 -119l-139 -137q72 -109 71 -236q0 -125 -71 -236l139 -135l-117 -118l-137 139q-106 -74 -238 -74q-131 0 -237 74l-140 -139zM307 725q0 -106 76 -182 t182 -76q109 0 184.5 75.5t75.5 182.5q0 109 -75.5 184.5t-184.5 75.5q-106 0 -182 -75.5t-76 -184.5z" />
<glyph unicode="&#xa5;" horiz-adv-x="1280" d="M53 375v221h1174v-221h-1174zM53 1372h260l328 -530l332 530h254l-475 -776v-596h-217v596z" />
<glyph unicode="&#xa6;" horiz-adv-x="419" d="M160 360h102v-790h-102v790zM160 700v791h102v-791h-102z" />
<glyph unicode="&#xa7;" horiz-adv-x="882" d="M61 25l144 143q100 -96 225 -105q88 -2 132 28t44 81q2 51 -36 92t-169 84q-139 45 -213.5 123t-74.5 178q-4 147 118 234q-121 88 -120 237q-6 100 83 187.5t234 87.5q207 -8 365 -154l-134 -133q-98 86 -231 98q-47 0 -75.5 -21.5t-33.5 -60.5q2 -37 30 -61.5 t116 -58.5q162 -55 249 -138.5t93 -242.5q2 -117 -96 -199q108 -88 108 -252q-6 -141 -113.5 -221t-275.5 -80q-190 2 -369 154zM319 662q0 -59 56.5 -93t152.5 -73q66 41 66 122q-8 80 -67.5 118t-133.5 63q-74 -45 -74 -137z" />
<glyph unicode="&#xa8;" horiz-adv-x="727" d="M96 1272q0 41 30 70.5t71 29.5q43 0 72.5 -28.5t29.5 -71.5q0 -41 -29.5 -72t-72.5 -31q-39 0 -70 31t-31 72zM430 1272q0 41 29.5 70.5t70.5 29.5q43 0 73 -28.5t30 -71.5q0 -41 -30 -72t-73 -31q-39 0 -69.5 31t-30.5 72z" />
<glyph unicode="&#xa9;" horiz-adv-x="1525" d="M57 690q0 190 97.5 358.5t264.5 257.5t343 89q186 0 353 -94.5t255 -256.5q96 -168 96 -354t-95 -353t-261 -258t-348 -91q-188 0 -354 95t-258.5 260t-92.5 347zM176 690q0 -158 80 -295t218 -215t288 -78q156 0 294 81t215 218.5t77 288.5q0 160 -81 299t-220.5 215 t-284.5 76q-156 0 -293 -80t-215 -215q-78 -141 -78 -295zM393 688q0 256 180 352q84 45 197 45q254 0 317 -219l-110 -26q-57 143 -211 143q-121 0 -186 -90q-59 -80 -60 -207q0 -125 55 -203q61 -86 183 -86q84 0 147.5 49.5t81.5 131.5l115 -35q-29 -121 -120 -188.5 t-220 -67.5q-174 0 -275 114q-94 109 -94 287z" />
<glyph unicode="&#xaa;" horiz-adv-x="645" d="M82 942q0 100 65.5 166t167.5 63q57 0 111 -14q2 98 -94 107q-84 4 -152 -47l-67 108q92 70 215 70q100 0 167.5 -58.5t67.5 -173.5v-438h-129v23q-51 -39 -112 -39q-104 0 -172 68.5t-68 164.5zM211 946q0 -45 28.5 -80t71.5 -35q66 -3 117 48v149q-51 16 -115 19 q-53 -2 -77.5 -29t-24.5 -72z" />
<glyph unicode="&#xab;" horiz-adv-x="1054" d="M55 606l240 420h240l-238 -420l238 -420h-240zM520 606l240 420h239l-237 -420l237 -420h-239z" />
<glyph unicode="&#xac;" horiz-adv-x="1095" d="M70 563v221h956v-528h-221v307h-735z" />
<glyph unicode="&#xad;" horiz-adv-x="604" d="M74 563v221h456v-221h-456z" />
<glyph unicode="&#xae;" horiz-adv-x="1443" d="M41 713q0 184 94 346t255 249t333 87q182 0 343 -91.5t247 -248.5q90 -164 90 -342q0 -182 -91 -344t-251 -250t-338 -88q-184 0 -344 92t-249 253t-89 337zM170 711q0 -152 74.5 -284t206 -204.5t272.5 -72.5q150 0 281 75.5t205.5 207.5t74.5 278q0 150 -79 283.5 t-210 204.5t-272 71q-147 0 -277.5 -75t-203.5 -204q-72 -137 -72 -280zM424 336v733h252q104 0 153 -10q84 -18 127 -80q33 -51 33 -109q0 -86 -53 -145q-45 -59 -135 -70l239 -319h-131l-243 311h-125v-311h-117zM541 750h145q80 -2 115 16q68 25 63 94q0 70 -69 98 q-31 12 -119 13h-135v-221z" />
<glyph unicode="&#xaf;" horiz-adv-x="665" d="M63 1237v92h539v-92h-539z" />
<glyph unicode="&#xb0;" horiz-adv-x="768" d="M106 1096q0 115 78 194q80 82 195 82q119 0 201 -80t82 -196q0 -117 -82 -197q-84 -82 -201 -82q-115 0 -193 80q-80 82 -80 199zM211 1096q0 -72 49 -121q51 -49 119 -49q72 0 121 49q51 51 51 121t-49 118q-51 49 -123 50q-68 0 -117 -50q-51 -48 -51 -118z" />
<glyph unicode="&#xb1;" horiz-adv-x="1034" d="M63 8v221h906v-221h-906zM63 627v221h345v342h215v-342h346v-221h-346v-342h-215v342h-345z" />
<glyph unicode="&#xb2;" horiz-adv-x="665" d="M68 575q6 289 278 447q133 74 129 137q0 45 -38 75t-99 34q-109 -8 -148 -115l-122 37q29 86 99.5 145.5t164.5 59.5q113 0 189.5 -70t76.5 -162q-2 -152 -178 -245q-168 -100 -201 -211h379v-132h-530z" />
<glyph unicode="&#xb3;" horiz-adv-x="663" d="M59 766l121 43q47 -102 154 -107q61 0 101 40t40 100q-2 104 -106 116h-37v127h37q76 0 75 78q0 45 -32.5 75t-79.5 30q-86 2 -119 -76l-115 29q31 90 92.5 132t137.5 42q100 0 170.5 -70t70.5 -170q0 -84 -55 -129q82 -59 86 -176q0 -121 -75.5 -199t-196.5 -78 q-88 0 -158 49.5t-111 143.5z" />
<glyph unicode="&#xb4;" horiz-adv-x="481" d="M55 1092l133 280h238l-221 -280h-150z" />
<glyph unicode="&#xb5;" d="M86 -317v1318h211v-626q-4 -78 51 -140.5t139 -58.5q88 0 134.5 51.5t46.5 147.5v626h217v-1001l-213 -106v157q-90 -76 -199 -76t-176 74v-260z" />
<glyph unicode="&#xb6;" horiz-adv-x="768" d="M39 1065q0 152 84 233q78 74 211 74h397v-127h-92v-1245h-107v1245h-139v-1245h-102v768q-113 6 -182 84q-70 80 -70 213z" />
<glyph unicode="&#xb7;" horiz-adv-x="419" d="M98 915q0 43 34 77t77 34t76.5 -34t33.5 -77q0 -47 -32.5 -78.5t-77.5 -31.5q-43 0 -77 33.5t-34 76.5z" />
<glyph unicode="&#xb8;" horiz-adv-x="542" d="M53 -250q61 -18 116.5 -27.5t96.5 -9.5q35 0 51.5 15.5t16.5 48.5q0 25 -21.5 37t-72.5 12h-25.5h-17.5v174h90v-66h16q86 0 135 -40.5t49 -118.5q0 -88 -53 -133t-153 -45q-45 0 -101.5 11.5t-126.5 31.5v110z" />
<glyph unicode="&#xb9;" horiz-adv-x="399" d="M98 1214v105q70 4 103 53h102v-819h-131v661h-74z" />
<glyph unicode="&#xba;" horiz-adv-x="686" d="M59 1053q0 141 52 227q76 113 231 115q152 -2 227 -115q54 -86 58 -227q-4 -135 -58 -219q-74 -123 -227 -125q-160 4 -231 125q-51 84 -52 219zM207 1053q0 -72 22 -125q41 -76 113 -76t109 76q23 53 22 125q0 74 -22 127q-35 78 -109 77q-78 0 -113 -77 q-23 -53 -22 -127z" />
<glyph unicode="&#xbb;" horiz-adv-x="1054" d="M55 186l238 420l-238 420h240l240 -420l-240 -420h-240zM520 186l238 420l-238 420h240l239 -420l-239 -420h-240z" />
<glyph unicode="&#xbc;" horiz-adv-x="1710" d="M113 1221v114q74 4 106 60h105v-891h-136v717h-75zM297 0l905 1397h113l-893 -1397h-125zM915 223v129l443 539h147v-541h92v-127h-92v-223h-147v223h-443zM1094 350h264v320z" />
<glyph unicode="&#xbd;" horiz-adv-x="1894" d="M125 1221v114q74 4 106 60h105v-891h-135v717h-76zM309 0l905 1397h113l-893 -1397h-125zM1182 0q8 313 307 485q145 80 139 150q0 49 -41 82t-106 35q-121 -8 -164 -125l-135 41q33 94 111.5 158.5t179.5 64.5q119 0 206.5 -76t87.5 -176q-6 -166 -198 -268 q-184 -109 -219 -230h417v-141h-585z" />
<glyph unicode="&#xbe;" horiz-adv-x="1832" d="M98 719l138 41q51 -111 167 -117q68 0 111 43t43 109q-2 113 -117 127h-41v135h41q84 0 84 84q0 51 -36.5 82.5t-88.5 31.5q-86 0 -127 -84l-129 35q35 94 102.5 141.5t149.5 47.5q111 0 187.5 -77t76.5 -185q0 -92 -59 -142q90 -61 92 -188q0 -131 -83 -215t-214 -84 q-96 0 -175 53t-122 162zM446 0l906 1397h112l-893 -1397h-125zM1042 223v129l443 539h147v-541h92v-127h-92v-223h-147v223h-443zM1221 350h264v320z" />
<glyph unicode="&#xbf;" horiz-adv-x="1054" d="M94 358q12 129 121 254q186 223 221 396h203q-45 -268 -242 -478q-82 -82 -86 -161q0 -82 60.5 -134.5t140.5 -50.5q178 8 260 181l189 -80q-139 -291 -447 -299q-182 4 -301 104t-119 268zM424 1282q0 47 32.5 79t78.5 32q43 0 76.5 -34t33.5 -77t-33.5 -77t-76.5 -34 t-77 34t-34 77z" />
<glyph unicode="&#xc0;" horiz-adv-x="1239" d="M41 0l471 1372h217l471 -1372h-229l-135 385h-428l-136 -385h-231zM434 1710h238l133 -280h-150zM483 606h275l-135 385z" />
<glyph unicode="&#xc1;" horiz-adv-x="1239" d="M41 0l471 1372h217l471 -1372h-229l-135 385h-428l-136 -385h-231zM434 1430l133 280h238l-221 -280h-150zM483 606h275l-135 385z" />
<glyph unicode="&#xc2;" horiz-adv-x="1239" d="M41 0l471 1372h217l471 -1372h-229l-135 385h-428l-136 -385h-231zM326 1436l186 280h213l186 -280h-137l-156 155l-155 -155h-137zM483 606h275l-135 385z" />
<glyph unicode="&#xc3;" horiz-adv-x="1239" d="M41 0l471 1372h217l471 -1372h-229l-135 385h-428l-136 -385h-231zM328 1425q14 117 62 170.5t120 53.5q18 -2 38.5 -5.5t45.5 -9.5l84 -22l24.5 -7t26.5 -3q29 0 47.5 19t24.5 54h112q-27 -117 -74.5 -172t-121.5 -55q-25 0 -35 4t-33 10l-88 27q-20 4 -31.5 6t-23.5 2 q-31 0 -49.5 -16.5t-30.5 -55.5h-98zM483 606h275l-135 385z" />
<glyph unicode="&#xc4;" horiz-adv-x="1239" d="M41 0l471 1372h217l471 -1372h-229l-135 385h-428l-136 -385h-231zM352 1573q0 41 30 70.5t71 29.5q43 0 72.5 -28.5t29.5 -71.5q0 -41 -29.5 -72t-72.5 -31q-39 0 -70 31t-31 72zM483 606h275l-135 385zM686 1573q0 41 29.5 70.5t70.5 29.5q43 0 73 -28.5t30 -71.5 q0 -41 -30 -72t-73 -31q-39 0 -69.5 31t-30.5 72z" />
<glyph unicode="&#xc5;" horiz-adv-x="1239" d="M41 0l471 1372h217l471 -1372h-229l-135 385h-428l-136 -385h-231zM420 1573q0 84 57.5 141.5t140.5 57.5q80 0 140.5 -58.5t60.5 -140.5h-74q2 51 -35.5 88t-91.5 37q-53 0 -91 -36t-38 -89q0 -51 38 -89t91 -38t91.5 38t35.5 89h74q0 -82 -59.5 -141.5t-141.5 -59.5 t-140 59.5t-58 141.5zM483 606h275l-135 385z" />
<glyph unicode="&#xc6;" horiz-adv-x="1771" d="M57 0l686 1372h928v-217h-592v-338h400v-221h-400v-375h635v-221h-852v1128l-262 -522h262v-221h-366l-193 -385h-246z" />
<glyph unicode="&#xc7;" horiz-adv-x="1136" d="M106 686q0 336 130.5 522.5t371.5 186.5q297 -6 422 -260l-203 -101q-68 141 -219 144q-143 0 -208.5 -136.5t-65.5 -355.5t65.5 -355t208.5 -136q152 2 219 143l203 -100q-125 -254 -422 -261q-242 0 -372 186.5t-130 522.5zM416 -250q61 -18 116.5 -27.5t96.5 -9.5 q35 0 51 15.5t16 48.5q0 25 -21.5 37t-72.5 12h-25.5h-17.5v174h90v-66h17q86 0 135 -40.5t49 -118.5q0 -88 -53.5 -133t-153.5 -45q-45 0 -101 11.5t-126 31.5v110z" />
<glyph unicode="&#xc8;" horiz-adv-x="1054" d="M102 0v1372h809v-217h-592v-338h400v-221h-400v-375h635v-221h-852zM342 1710h238l133 -280h-150z" />
<glyph unicode="&#xc9;" horiz-adv-x="1054" d="M102 0v1372h809v-217h-592v-338h400v-221h-400v-375h635v-221h-852zM342 1430l133 280h238l-221 -280h-150z" />
<glyph unicode="&#xca;" horiz-adv-x="1054" d="M102 0v1372h809v-217h-592v-338h400v-221h-400v-375h635v-221h-852zM236 1436l186 280h213l186 -280h-137l-156 155l-155 -155h-137z" />
<glyph unicode="&#xcb;" horiz-adv-x="1054" d="M102 0v1372h809v-217h-592v-338h400v-221h-400v-375h635v-221h-852zM260 1573q0 41 29.5 70.5t70.5 29.5q43 0 73 -28.5t30 -71.5q0 -41 -30 -72t-73 -31q-39 0 -69.5 31t-30.5 72zM594 1573q0 41 29.5 70.5t70.5 29.5q43 0 73 -28.5t30 -71.5q0 -41 -30 -72t-73 -31 q-39 0 -69.5 31t-30.5 72z" />
<glyph unicode="&#xcc;" horiz-adv-x="563" d="M96 1710h238l133 -280h-150zM170 0v1372h221v-1372h-221z" />
<glyph unicode="&#xcd;" horiz-adv-x="563" d="M96 1430l133 280h238l-221 -280h-150zM170 0v1372h221v-1372h-221z" />
<glyph unicode="&#xce;" horiz-adv-x="563" d="M-10 1436l186 280h213l186 -280h-137l-155 155l-156 -155h-137zM170 0v1372h221v-1372h-221z" />
<glyph unicode="&#xcf;" horiz-adv-x="563" d="M14 1573q0 41 30 70.5t71 29.5q43 0 72.5 -28.5t29.5 -71.5q0 -41 -29.5 -72t-72.5 -31q-39 0 -70 31t-31 72zM170 0v1372h221v-1372h-221zM348 1573q0 41 30 70.5t71 29.5q43 0 72.5 -28.5t29.5 -71.5q0 -41 -29.5 -72t-72.5 -31q-39 0 -70 31t-31 72z" />
<glyph unicode="&#xd0;" horiz-adv-x="1239" d="M80 561v221h528v-221h-528zM223 0v1372h428q213 0 359.5 -164t148.5 -522q-2 -358 -148.5 -522t-359.5 -164h-428zM440 217h211q137 4 214 131t79 338q0 225 -78 345t-215 124h-211v-469v-469z" />
<glyph unicode="&#xd1;" horiz-adv-x="1136" d="M102 0v1372h217l500 -876v876h217v-1372h-192l-525 930v-930h-217zM276 1425q14 117 62.5 170.5t120.5 53.5q18 -2 38.5 -5.5t45.5 -9.5l84 -22l24.5 -7t26.5 -3q29 0 47 19t25 54h112q-27 -117 -75 -172t-121 -55q-25 0 -35 4t-33 10l-88 27q-20 4 -31.5 6t-23.5 2 q-31 0 -49.5 -16.5t-30.5 -55.5h-99z" />
<glyph unicode="&#xd2;" horiz-adv-x="1157" d="M76 686q0 336 130 522.5t372 186.5q246 0 373.5 -186.5t127.5 -522.5q0 -344 -127.5 -527.5t-373.5 -183.5q-242 0 -372 183.5t-130 527.5zM301 690q0 -242 64.5 -366.5t212.5 -122.5q156 4 215 129t63 360q-4 229 -68.5 354.5t-209.5 133.5q-143 0 -209 -136.5 t-68 -351.5zM393 1710h238l133 -280h-150z" />
<glyph unicode="&#xd3;" horiz-adv-x="1157" d="M76 686q0 336 130 522.5t372 186.5q246 0 373.5 -186.5t127.5 -522.5q0 -344 -127.5 -527.5t-373.5 -183.5q-242 0 -372 183.5t-130 527.5zM301 690q0 -242 64.5 -366.5t212.5 -122.5q156 4 215 129t63 360q-4 229 -68.5 354.5t-209.5 133.5q-143 0 -209 -136.5 t-68 -351.5zM393 1430l133 280h238l-221 -280h-150z" />
<glyph unicode="&#xd4;" horiz-adv-x="1157" d="M76 686q0 336 130 522.5t372 186.5q246 0 373.5 -186.5t127.5 -522.5q0 -344 -127.5 -527.5t-373.5 -183.5q-242 0 -372 183.5t-130 527.5zM287 1436l186 280h213l186 -280h-137l-155 155l-156 -155h-137zM301 690q0 -242 64.5 -366.5t212.5 -122.5q156 4 215 129t63 360 q-4 229 -68.5 354.5t-209.5 133.5q-143 0 -209 -136.5t-68 -351.5z" />
<glyph unicode="&#xd5;" horiz-adv-x="1157" d="M76 686q0 336 130 522.5t372 186.5q246 0 373.5 -186.5t127.5 -522.5q0 -344 -127.5 -527.5t-373.5 -183.5q-242 0 -372 183.5t-130 527.5zM276 1425q14 117 62.5 170.5t120.5 53.5q18 -2 38.5 -5.5t45.5 -9.5l84 -22l24.5 -7t26.5 -3q29 0 47 19t25 54h112 q-27 -117 -75 -172t-121 -55q-25 0 -35 4t-33 10l-88 27q-20 4 -31.5 6t-23.5 2q-31 0 -49.5 -16.5t-30.5 -55.5h-99zM301 690q0 -242 64.5 -366.5t212.5 -122.5q156 4 215 129t63 360q-4 229 -68.5 354.5t-209.5 133.5q-143 0 -209 -136.5t-68 -351.5z" />
<glyph unicode="&#xd6;" horiz-adv-x="1157" d="M76 686q0 336 130 522.5t372 186.5q246 0 373.5 -186.5t127.5 -522.5q0 -344 -127.5 -527.5t-373.5 -183.5q-242 0 -372 183.5t-130 527.5zM301 690q0 -242 64.5 -366.5t212.5 -122.5q156 4 215 129t63 360q-4 229 -68.5 354.5t-209.5 133.5q-143 0 -209 -136.5 t-68 -351.5zM309 1573q0 41 30 70.5t71 29.5q43 0 72.5 -28.5t29.5 -71.5q0 -41 -29.5 -72t-72.5 -31q-39 0 -70 31t-31 72zM643 1573q0 41 29.5 70.5t70.5 29.5q43 0 73 -28.5t30 -71.5q0 -41 -30 -72t-73 -31q-39 0 -69.5 31t-30.5 72z" />
<glyph unicode="&#xd7;" horiz-adv-x="1196" d="M162 410l313 315l-313 313l123 121l313 -313l313 313l119 -121l-311 -313l313 -313l-121 -123l-313 313l-315 -313z" />
<glyph unicode="&#xd8;" horiz-adv-x="1157" d="M25 -25l915 1420h193l-930 -1420h-178zM76 686q0 336 130 522.5t372 186.5q246 0 373.5 -186.5t127.5 -522.5q0 -344 -127.5 -527.5t-373.5 -183.5q-242 0 -372 183.5t-130 527.5zM301 690q0 -242 64.5 -366.5t212.5 -122.5q156 4 215 129t63 360q-4 229 -68.5 354.5 t-209.5 133.5q-143 0 -209 -136.5t-68 -351.5z" />
<glyph unicode="&#xd9;" horiz-adv-x="1136" d="M102 492v880h217v-880q0 -133 69 -214t181 -81q113 0 181.5 80.5t68.5 214.5v880h217v-880q0 -162 -63 -285q-51 -102 -164 -167t-240 -65t-239.5 64.5t-165.5 167.5q-61 123 -62 285zM383 1710h238l133 -280h-150z" />
<glyph unicode="&#xda;" horiz-adv-x="1136" d="M102 492v880h217v-880q0 -133 69 -214t181 -81q113 0 181.5 80.5t68.5 214.5v880h217v-880q0 -162 -63 -285q-51 -102 -164 -167t-240 -65t-239.5 64.5t-165.5 167.5q-61 123 -62 285zM383 1430l133 280h238l-222 -280h-149z" />
<glyph unicode="&#xdb;" horiz-adv-x="1136" d="M102 492v880h217v-880q0 -133 69 -214t181 -81q113 0 181.5 80.5t68.5 214.5v880h217v-880q0 -162 -63 -285q-51 -102 -164 -167t-240 -65t-239.5 64.5t-165.5 167.5q-61 123 -62 285zM276 1436l187 280h213l186 -280h-137l-156 155l-155 -155h-138z" />
<glyph unicode="&#xdc;" horiz-adv-x="1136" d="M102 492v880h217v-880q0 -133 69 -214t181 -81q113 0 181.5 80.5t68.5 214.5v880h217v-880q0 -162 -63 -285q-51 -102 -164 -167t-240 -65t-239.5 64.5t-165.5 167.5q-61 123 -62 285zM301 1573q0 41 29.5 70.5t70.5 29.5q43 0 73 -28.5t30 -71.5q0 -41 -30 -72t-73 -31 q-39 0 -69.5 31t-30.5 72zM635 1573q0 41 29.5 70.5t70.5 29.5q43 0 73 -28.5t30 -71.5q0 -41 -30 -72t-73 -31q-39 0 -69.5 31t-30.5 72z" />
<glyph unicode="&#xdd;" horiz-adv-x="1280" d="M53 1372h260l328 -530l332 530h254l-475 -776v-596h-217v596zM455 1430l133 280h237l-221 -280h-149z" />
<glyph unicode="&#xde;" horiz-adv-x="1136" d="M117 0v1372h217v-291h235q152 0 244 -44t150.5 -140t58.5 -201q0 -109 -47 -196.5t-142.5 -142t-238.5 -52.5h-260v-305h-217zM334 526h325q61 0 104.5 51t41.5 119q0 76 -47 121t-107 47h-317v-338z" />
<glyph unicode="&#xdf;" horiz-adv-x="1116" d="M123 -319v1294q0 188 109.5 304t287.5 116q174 0 297 -122t123 -296q2 -145 -94 -223q143 -100 147 -301q0 -211 -132 -344.5t-341 -133.5h-90v222h100q109 0 177.5 68.5t68.5 172.5q-2 180 -186 203h-160v215h160q133 0 133 135q0 80 -57.5 131.5t-139.5 51.5 q-84 -2 -131 -51.5t-55 -149.5v-1182z" />
<glyph unicode="&#xe0;" d="M102 332q0 150 99.5 251t269.5 99q94 0 176 -23q4 150 -151 164q-133 4 -240 -73l-109 165q147 104 342 111q160 0 269.5 -91t111.5 -265v-670h-211v33q-80 -57 -178 -60q-164 2 -271.5 93.5t-107.5 265.5zM297 328q0 -61 48 -116.5t130 -55.5q88 -1 166 75v226 q-90 25 -180 24q-72 0 -119 -47t-45 -106zM301 1372h238l133 -280h-150z" />
<glyph unicode="&#xe1;" d="M102 332q0 150 99.5 251t269.5 99q94 0 176 -23q4 150 -151 164q-133 4 -240 -73l-109 165q147 104 342 111q160 0 269.5 -91t111.5 -265v-670h-211v33q-80 -57 -178 -60q-164 2 -271.5 93.5t-107.5 265.5zM297 328q0 -61 48 -116.5t130 -55.5q88 -1 166 75v226 q-90 25 -180 24q-72 0 -119 -47t-45 -106zM301 1092l133 280h238l-221 -280h-150z" />
<glyph unicode="&#xe2;" d="M102 332q0 150 99.5 251t269.5 99q94 0 176 -23q4 150 -151 164q-133 4 -240 -73l-109 165q147 104 342 111q160 0 269.5 -91t111.5 -265v-670h-211v33q-80 -57 -178 -60q-164 2 -271.5 93.5t-107.5 265.5zM193 1063l186 280h213l186 -280h-137l-156 156l-155 -156h-137z M297 328q0 -61 48 -116.5t130 -55.5q88 -1 166 75v226q-90 25 -180 24q-72 0 -119 -47t-45 -106z" />
<glyph unicode="&#xe3;" d="M102 332q0 150 99.5 251t269.5 99q94 0 176 -23q4 150 -151 164q-133 4 -240 -73l-109 165q147 104 342 111q160 0 269.5 -91t111.5 -265v-670h-211v33q-80 -57 -178 -60q-164 2 -271.5 93.5t-107.5 265.5zM193 1122q14 117 62 170.5t120 53.5q18 -2 38.5 -5.5t45.5 -9.5 l84 -22q14 -4 24.5 -7.5t26.5 -3.5q29 0 47 19.5t25 54.5h112q-27 -117 -75 -172t-121 -55q-25 0 -35 4t-33 10l-88 27q-20 4 -31.5 6t-23.5 2q-31 0 -49.5 -16.5t-30.5 -55.5h-98zM297 328q0 -61 48 -116.5t130 -55.5q88 -1 166 75v226q-90 25 -180 24q-72 0 -119 -47 t-45 -106z" />
<glyph unicode="&#xe4;" d="M102 332q0 150 99.5 251t269.5 99q94 0 176 -23q4 150 -151 164q-133 4 -240 -73l-109 165q147 104 342 111q160 0 269.5 -91t111.5 -265v-670h-211v33q-80 -57 -178 -60q-164 2 -271.5 93.5t-107.5 265.5zM219 1231q0 41 30 70.5t70 29.5q43 0 73 -28.5t30 -71.5 q0 -41 -30 -72t-73 -31q-39 0 -69.5 31t-30.5 72zM297 328q0 -61 48 -116.5t130 -55.5q88 -1 166 75v226q-90 25 -180 24q-72 0 -119 -47t-45 -106zM553 1231q0 41 29.5 70.5t70.5 29.5q43 0 73 -28.5t30 -71.5q0 -41 -30 -72t-73 -31q-39 0 -69.5 31t-30.5 72z" />
<glyph unicode="&#xe5;" d="M102 332q0 150 99.5 251t269.5 99q94 0 176 -23q4 150 -151 164q-133 4 -240 -73l-109 165q147 104 342 111q160 0 269.5 -91t111.5 -265v-670h-211v33q-80 -57 -178 -60q-164 2 -271.5 93.5t-107.5 265.5zM287 1268q0 84 57 141t141 57q80 0 140.5 -58t60.5 -140h-74 q2 51 -35.5 88t-91.5 37q-53 0 -91 -36t-38 -89q0 -51 38 -89t91 -38t91 38t36 89h74q0 -82 -59.5 -141.5t-141.5 -59.5t-140 59.5t-58 141.5zM297 328q0 -61 48 -116.5t130 -55.5q88 -1 166 75v226q-90 25 -180 24q-72 0 -119 -47t-45 -106z" />
<glyph unicode="&#xe6;" horiz-adv-x="1546" d="M96 332q0 150 99.5 251t269.5 99q94 0 176 -23q4 150 -152 164q-133 4 -239 -73l-109 165q147 104 342 111q160 0 269.5 -91t101.5 -259q-23 -172 10 -432q-41 -125 -133 -197t-256 -74q-164 2 -271.5 93.5t-107.5 265.5zM291 328q0 -61 48 -116.5t130 -55.5 q88 -1 166 75v226q-90 25 -180 24q-72 0 -119 -47t-45 -106zM635 506q0 211 109.5 365.5t304.5 154.5q182 0 291.5 -143t109.5 -473h-590q0 -96 51.5 -159t132.5 -61q115 -4 177 101l194 -80q-102 -229 -366 -236q-186 0 -300 137.5t-114 393.5zM856 610h375q2 86 -48 149.5 t-134 63.5q-90 2 -143.5 -66.5t-49.5 -146.5z" />
<glyph unicode="&#xe7;" horiz-adv-x="952" d="M76 506q0 211 80 342q106 178 338 178q297 0 380 -252l-202 -82q-45 131 -180 129q-111 0 -160 -119q-35 -84 -35 -196q0 -113 35 -197q49 -119 160 -119q135 -2 180 129l202 -81q-84 -252 -380 -252q-231 0 -338 178q-80 131 -80 342zM307 -250q61 -18 116.5 -27.5 t96.5 -9.5q35 0 51.5 15.5t16.5 48.5q0 25 -21.5 37t-72.5 12h-25.5h-17.5v174h90v-66h16q86 0 135 -40.5t49 -118.5q0 -88 -53 -133t-153 -45q-45 0 -101.5 11.5t-126.5 31.5v110z" />
<glyph unicode="&#xe8;" d="M80 506q0 211 109.5 365.5t304.5 154.5q182 0 291.5 -143t109.5 -473h-590q0 -96 51.5 -159t132.5 -61q115 -4 177 101l194 -80q-102 -229 -366 -236q-186 0 -300 137.5t-114 393.5zM301 610h375q2 86 -48 149.5t-134 63.5q-90 2 -143.5 -66.5t-49.5 -146.5zM301 1372 h238l133 -280h-150z" />
<glyph unicode="&#xe9;" d="M80 506q0 211 109.5 365.5t304.5 154.5q182 0 291.5 -143t109.5 -473h-590q0 -96 51.5 -159t132.5 -61q115 -4 177 101l194 -80q-102 -229 -366 -236q-186 0 -300 137.5t-114 393.5zM301 610h375q2 86 -48 149.5t-134 63.5q-90 2 -143.5 -66.5t-49.5 -146.5zM301 1092 l133 280h238l-221 -280h-150z" />
<glyph unicode="&#xea;" d="M80 506q0 211 109.5 365.5t304.5 154.5q182 0 291.5 -143t109.5 -473h-590q0 -96 51.5 -159t132.5 -61q115 -4 177 101l194 -80q-102 -229 -366 -236q-186 0 -300 137.5t-114 393.5zM193 1063l186 280h213l186 -280h-137l-156 156l-155 -156h-137zM301 610h375 q2 86 -48 149.5t-134 63.5q-90 2 -143.5 -66.5t-49.5 -146.5z" />
<glyph unicode="&#xeb;" d="M80 506q0 211 109.5 365.5t304.5 154.5q182 0 291.5 -143t109.5 -473h-590q0 -96 51.5 -159t132.5 -61q115 -4 177 101l194 -80q-102 -229 -366 -236q-186 0 -300 137.5t-114 393.5zM219 1231q0 41 30 70.5t70 29.5q43 0 73 -28.5t30 -71.5q0 -41 -30 -72t-73 -31 q-39 0 -69.5 31t-30.5 72zM301 610h375q2 86 -48 149.5t-134 63.5q-90 2 -143.5 -66.5t-49.5 -146.5zM553 1231q0 41 29.5 70.5t70.5 29.5q43 0 73 -28.5t30 -71.5q0 -41 -30 -72t-73 -31q-39 0 -69.5 31t-30.5 72z" />
<glyph unicode="&#xec;" horiz-adv-x="501" d="M66 1372h237l133 -280h-149zM139 0v1001h223v-1001h-223z" />
<glyph unicode="&#xed;" horiz-adv-x="501" d="M66 1092l133 280h237l-221 -280h-149zM139 0v1001h223v-1001h-223z" />
<glyph unicode="&#xee;" horiz-adv-x="501" d="M-41 1063l186 280h213l187 -280h-137l-156 156l-156 -156h-137zM139 0v1001h223v-1001h-223z" />
<glyph unicode="&#xef;" horiz-adv-x="501" d="M-16 1231q0 41 29.5 70.5t70.5 29.5q43 0 72.5 -28.5t29.5 -71.5q0 -41 -29.5 -72t-72.5 -31q-39 0 -69.5 31t-30.5 72zM139 0v1001h223v-1001h-223zM317 1231q0 41 30 70.5t71 29.5q43 0 72.5 -28.5t29.5 -71.5q0 -41 -29.5 -72t-72.5 -31q-39 0 -70 31t-31 72z" />
<glyph unicode="&#xf0;" d="M70 459q2 195 82 313q109 156 292 158q35 2 66 -12q-88 156 -313 292l94 185q283 -135 446.5 -388t167.5 -548q-2 -188 -82 -305q-115 -178 -336 -179q-229 0 -335 179q-80 117 -82 305zM117 1055l616 305l74 -146l-617 -305zM293 453q0 -88 35 -158q57 -96 159 -96 q109 0 160 96q35 70 35 158q0 90 -35 159q-49 96 -160 97q-111 0 -159 -97q-35 -70 -35 -159z" />
<glyph unicode="&#xf1;" d="M86 0v1014h213v-64q90 76 240 76q174 0 260 -119t86 -276v-631h-211v627q4 78 -51.5 140t-139.5 58q-88 0 -134 -51t-46 -147v-627h-217zM193 1122q14 117 62 170.5t120 53.5q18 -2 38.5 -5.5t45.5 -9.5l84 -22q14 -4 24.5 -7.5t26.5 -3.5q29 0 47 19.5t25 54.5h112 q-27 -117 -75 -172t-121 -55q-25 0 -35 4t-33 10l-88 27q-20 4 -31.5 6t-23.5 2q-31 0 -49.5 -16.5t-30.5 -55.5h-98z" />
<glyph unicode="&#xf2;" d="M70 502q2 215 82 346q109 172 335 178q227 -6 336 -178q80 -131 82 -346q-2 -207 -82 -338q-106 -178 -336 -189q-229 10 -335 189q-80 131 -82 338zM279 500q0 -109 36 -191q61 -116 170 -116q119 0 174 116q37 82 37 191q0 115 -37 196q-53 117 -174 117 q-117 0 -170 -117q-37 -82 -36 -196zM301 1372h238l133 -280h-150z" />
<glyph unicode="&#xf3;" d="M70 502q2 -207 82 -338q106 -178 335 -189q229 10 336 189q80 131 82 338q-2 215 -82 346q-109 172 -336 178q-227 -6 -335 -178q-80 -131 -82 -346zM279 500q0 115 36 196q53 117 170 117q121 0 174 -117q37 -82 37 -196q0 -109 -37 -191q-55 -116 -174 -116 q-109 0 -170 116q-37 82 -36 191zM301 1092l133 280h238l-221 -280h-150z" />
<glyph unicode="&#xf4;" d="M70 502q2 215 82 346q109 172 335 178q227 -6 336 -178q80 -131 82 -346q-2 -207 -82 -338q-106 -178 -336 -189q-229 10 -335 189q-80 131 -82 338zM193 1063l186 280h213l186 -280h-137l-156 156l-155 -156h-137zM279 500q0 -109 36 -191q61 -116 170 -116 q119 0 174 116q37 82 37 191q0 115 -37 196q-53 117 -174 117q-117 0 -170 -117q-37 -82 -36 -196z" />
<glyph unicode="&#xf5;" d="M70 502q2 -207 82 -338q106 -178 335 -189q229 10 336 189q80 131 82 338q-2 215 -82 346q-109 172 -336 178q-227 -6 -335 -178q-80 -131 -82 -346zM193 1122q14 117 62 170.5t120 53.5q18 -2 38.5 -5.5t45.5 -9.5l84 -22q14 -4 24.5 -7.5t26.5 -3.5q29 0 47 19.5 t25 54.5h112q-27 -117 -75 -172t-121 -55q-25 0 -35 4t-33 10l-88 27q-20 4 -31.5 6t-23.5 2q-31 0 -49.5 -16.5t-30.5 -55.5h-98zM279 500q0 115 36 196q53 117 170 117q121 0 174 -117q37 -82 37 -196q0 -109 -37 -191q-55 -116 -174 -116q-109 0 -170 116q-37 82 -36 191 z" />
<glyph unicode="&#xf6;" d="M70 502q2 -207 82 -338q106 -178 335 -189q229 10 336 189q80 131 82 338q-2 215 -82 346q-109 172 -336 178q-227 -6 -335 -178q-80 -131 -82 -346zM219 1231q0 41 30 70.5t70 29.5q43 0 73 -28.5t30 -71.5q0 -41 -30 -72t-73 -31q-39 0 -69.5 31t-30.5 72zM279 500 q0 115 36 196q53 117 170 117q121 0 174 -117q37 -82 37 -196q0 -109 -37 -191q-55 -116 -174 -116q-109 0 -170 116q-37 82 -36 191zM553 1231q0 41 29.5 70.5t70.5 29.5q43 0 73 -28.5t30 -71.5q0 -41 -30 -72t-73 -31q-39 0 -69.5 31t-30.5 72z" />
<glyph unicode="&#xf7;" horiz-adv-x="1177" d="M119 694v156h942v-156h-942zM469 463q0 49 35 84t86 35q45 0 81 -35t36 -84t-36 -84t-81 -35q-51 0 -86 35t-35 84zM469 1079q0 49 35 83t86 34q45 0 81 -34t36 -83t-36 -83.5t-81 -34.5q-51 0 -86 34.5t-35 83.5z" />
<glyph unicode="&#xf8;" d="M33 -25l712 1051h195l-711 -1051h-196zM68 502q2 215 82 346q109 172 335 178q227 -6 336 -178q80 -131 82 -346q-2 -207 -82 -338q-106 -178 -336 -189q-229 10 -335 189q-80 131 -82 338zM279 500q0 -109 36 -191q61 -116 170 -116q119 0 174 116q37 82 37 191 q0 115 -37 196q-53 117 -174 117q-117 0 -170 -117q-37 -82 -36 -196z" />
<glyph unicode="&#xf9;" d="M86 371v630h211v-626q-4 -78 51 -140.5t139 -58.5q88 0 134.5 51.5t46.5 147.5v626h217v-1001h-213v51q-90 -76 -240 -76q-174 0 -260 119t-86 277zM301 1372h238l133 -280h-150z" />
<glyph unicode="&#xfa;" d="M86 371v630h211v-626q-4 -78 51 -140.5t139 -58.5q88 0 134.5 51.5t46.5 147.5v626h217v-1001h-213v51q-90 -76 -240 -76q-174 0 -260 119t-86 277zM301 1092l133 280h238l-221 -280h-150z" />
<glyph unicode="&#xfb;" d="M86 371v630h211v-626q-4 -78 51 -140.5t139 -58.5q88 0 134.5 51.5t46.5 147.5v626h217v-1001h-213v51q-90 -76 -240 -76q-174 0 -260 119t-86 277zM193 1063l186 280h213l186 -280h-137l-156 156l-155 -156h-137z" />
<glyph unicode="&#xfc;" d="M86 371v630h211v-626q-4 -78 51 -140.5t139 -58.5q88 0 134.5 51.5t46.5 147.5v626h217v-1001h-213v51q-90 -76 -240 -76q-174 0 -260 119t-86 277zM219 1231q0 41 30 70.5t70 29.5q43 0 73 -28.5t30 -71.5q0 -41 -30 -72t-73 -31q-39 0 -69.5 31t-30.5 72zM553 1231 q0 41 29.5 70.5t70.5 29.5q43 0 73 -28.5t30 -71.5q0 -41 -30 -72t-73 -31q-39 0 -69.5 31t-30.5 72z" />
<glyph unicode="&#xfd;" horiz-adv-x="1075" d="M29 1001h235l275 -702l264 702h246l-594 -1495h-242l201 494zM352 1092l133 280h238l-221 -280h-150z" />
<glyph unicode="&#xfe;" horiz-adv-x="1034" d="M106 -496v1782l218 109v-441q66 70 188 72q414 -8 414 -541q0 -510 -410 -510q-106 0 -192 60v-422zM328 264q76 -98 190 -96q193 2 195 319q0 315 -201 328q-125 0 -184 -100v-451z" />
<glyph unicode="&#xff;" horiz-adv-x="1075" d="M29 1001h235l275 -702l264 702h246l-594 -1495h-242l201 494zM268 1231q0 41 30 70.5t71 29.5q43 0 72.5 -28.5t29.5 -71.5q0 -41 -29.5 -72t-72.5 -31q-39 0 -70 31t-31 72zM602 1231q0 41 30 70.5t70 29.5q43 0 73 -28.5t30 -71.5q0 -41 -30 -72t-73 -31 q-39 0 -69.5 31t-30.5 72z" />
<glyph unicode="&#x152;" horiz-adv-x="1812" d="M88 686q0 336 130 522.5t372 186.5q246 0 374 -186.5t128 -522.5q0 -344 -128 -527.5t-374 -183.5q-242 0 -372 183.5t-130 527.5zM313 690q0 -242 64.5 -366.5t212.5 -122.5q156 4 215 129t63 360q-4 229 -68.5 354.5t-209.5 133.5q-143 0 -209 -136.5t-68 -351.5z M872 0v1372h809v-217h-591v-338h399v-221h-399v-375h634v-221h-852z" />
<glyph unicode="&#x153;" horiz-adv-x="1505" d="M39 502q2 215 82 346q109 172 336 178q227 -6 336 -178q79 -131 81 -346q-2 -207 -81 -338q-106 -178 -336 -189q-229 10 -336 189q-80 131 -82 338zM262 500q0 -109 35 -191q58 -116 160 -116q109 0 159 116q35 82 35 191q0 115 -35 196q-49 117 -159 117 q-111 0 -160 -117q-35 -82 -35 -196zM651 506q0 211 109.5 365.5t304.5 154.5q182 0 291.5 -143t109.5 -473h-589q0 -96 51 -159t133 -61q115 -4 176 101l195 -80q-102 -229 -367 -236q-186 0 -300 137.5t-114 393.5zM872 610h375q2 86 -48 149.5t-134 63.5 q-90 2 -143.5 -66.5t-49.5 -146.5z" />
<glyph unicode="&#x178;" horiz-adv-x="1280" d="M53 1372h260l328 -530l332 530h254l-475 -776v-596h-217v596zM371 1573q0 41 29.5 70.5t70.5 29.5q43 0 72.5 -28.5t29.5 -71.5q0 -41 -29.5 -72t-72.5 -31q-39 0 -69.5 31t-30.5 72zM705 1573q0 41 29.5 70.5t70.5 29.5q43 0 72.5 -28.5t29.5 -71.5q0 -41 -29.5 -72 t-72.5 -31q-39 0 -69.5 31t-30.5 72z" />
<glyph unicode="&#x2c6;" horiz-adv-x="645" d="M29 1092l186 280h213l186 -280h-137l-155 155l-156 -155h-137z" />
<glyph unicode="&#x2dc;" horiz-adv-x="665" d="M41 1122q14 117 62.5 170.5t119.5 53.5q18 -2 39 -5.5t45 -9.5l84 -22q14 -4 24.5 -7.5t26.5 -3.5q29 0 47.5 19.5t24.5 54.5h113q-27 -117 -75 -172t-122 -55q-25 0 -35 4t-33 10l-88 27q-20 4 -31.5 6t-23.5 2q-31 0 -49 -16.5t-31 -55.5h-98z" />
<glyph unicode="&#x2000;" horiz-adv-x="886" />
<glyph unicode="&#x2001;" horiz-adv-x="1772" />
<glyph unicode="&#x2002;" horiz-adv-x="886" />
<glyph unicode="&#x2003;" horiz-adv-x="1772" />
<glyph unicode="&#x2004;" horiz-adv-x="590" />
<glyph unicode="&#x2005;" horiz-adv-x="443" />
<glyph unicode="&#x2006;" horiz-adv-x="295" />
<glyph unicode="&#x2007;" horiz-adv-x="295" />
<glyph unicode="&#x2008;" horiz-adv-x="221" />
<glyph unicode="&#x2009;" horiz-adv-x="354" />
<glyph unicode="&#x200a;" horiz-adv-x="98" />
<glyph unicode="&#x2010;" horiz-adv-x="604" d="M74 563v221h456v-221h-456z" />
<glyph unicode="&#x2011;" horiz-adv-x="604" d="M74 563v221h456v-221h-456z" />
<glyph unicode="&#x2012;" horiz-adv-x="604" d="M74 563v221h456v-221h-456z" />
<glyph unicode="&#x2013;" horiz-adv-x="1095" d="M70 563v221h956v-221h-956z" />
<glyph unicode="&#x2014;" horiz-adv-x="2058" d="M72 563v221h1915v-221h-1915z" />
<glyph unicode="&#x2018;" horiz-adv-x="419" d="M98 1090q0 113 53.5 184.5t157.5 97.5v-33q-98 -57 -112 -139h12q43 0 76.5 -33.5t33.5 -76.5t-33.5 -77t-76.5 -34t-77 34t-34 77z" />
<glyph unicode="&#x2019;" horiz-adv-x="419" d="M98 1262q0 43 34 76.5t77 33.5t76.5 -33.5t33.5 -76.5q0 -113 -53 -184.5t-157 -98.5v33q98 57 112 139h-12q-43 0 -77 34t-34 77z" />
<glyph unicode="&#x201c;" horiz-adv-x="808" d="M111 1090q0 113 53 184.5t158 97.5v-33q-98 -57 -113 -139h12q43 0 77 -33.5t34 -76.5t-34 -77t-77 -34t-76.5 34t-33.5 77zM475 1090q0 113 53.5 184.5t157.5 97.5v-33q-98 -57 -113 -139h13q43 0 76.5 -33.5t33.5 -76.5t-33.5 -77t-76.5 -34t-77 34t-34 77z" />
<glyph unicode="&#x201d;" horiz-adv-x="808" d="M111 1262q0 43 33.5 76.5t76.5 33.5t77 -33.5t34 -76.5q0 -113 -53.5 -184.5t-157.5 -98.5v33q98 57 112 139h-12q-43 0 -76.5 34t-33.5 77zM475 1262q0 43 34 76.5t77 33.5t76.5 -33.5t33.5 -76.5q0 -113 -53 -184.5t-158 -98.5v33q98 57 113 139h-12q-43 0 -77 34 t-34 77z" />
<glyph unicode="&#x201e;" horiz-adv-x="808" d="M111 96q0 43 33.5 77t76.5 34t77 -34t34 -77q0 -113 -53.5 -184.5t-157.5 -97.5v32q98 57 112 140h-12q-43 0 -76.5 33.5t-33.5 76.5zM475 96q0 43 34 77t77 34t76.5 -34t33.5 -77q0 -113 -53 -184.5t-158 -97.5v32q98 57 113 140h-12q-43 0 -77 33.5t-34 76.5z" />
<glyph unicode="&#x2022;" horiz-adv-x="1280" d="M123 621q0 217 149.5 366.5t366.5 149.5q215 0 366.5 -149.5t151.5 -366.5q0 -219 -150.5 -369t-367.5 -150q-215 0 -365.5 152t-150.5 367z" />
<glyph unicode="&#x2026;" horiz-adv-x="1341" d="M100 96q0 43 34 77t77 34t77 -34t34 -77q0 -47 -33 -78.5t-78 -31.5q-43 0 -77 33.5t-34 76.5zM559 96q0 43 34 77t77 34t76.5 -34t33.5 -77q0 -47 -32.5 -78.5t-77.5 -31.5q-43 0 -77 33.5t-34 76.5zM1020 96q0 43 33.5 77t76.5 34t77 -34t34 -77q0 -47 -32.5 -78.5 t-78.5 -31.5q-43 0 -76.5 33.5t-33.5 76.5z" />
<glyph unicode="&#x202f;" horiz-adv-x="354" />
<glyph unicode="&#x2039;" horiz-adv-x="563" d="M43 606l240 420h239l-237 -420l237 -420h-239z" />
<glyph unicode="&#x203a;" horiz-adv-x="563" d="M43 186l238 420l-238 420h240l239 -420l-239 -420h-240z" />
<glyph unicode="&#x205f;" horiz-adv-x="443" />
<glyph unicode="&#x20ac;" horiz-adv-x="1157" d="M82 506v121h620v-121h-620zM82 750v120h620v-120h-620zM150 686q0 336 130 522.5t371 186.5q297 -6 422 -260l-203 -101q-68 141 -219 144q-143 0 -208.5 -136.5t-65.5 -355.5t65.5 -355t208.5 -136q152 2 219 143l203 -100q-125 -254 -422 -261q-242 0 -371.5 186.5 t-129.5 522.5z" />
<glyph unicode="&#x2122;" horiz-adv-x="1505" d="M76 1233v139h522v-139h-192v-567h-138v567h-192zM735 666v706h146l202 -387l197 387h147v-706h-147v383l-197 -383l-202 383v-383h-146z" />
<glyph unicode="&#x25fc;" horiz-adv-x="1003" d="M0 0v1004h1004v-1004h-1004z" />
</font>
</defs>
</svg>
